<svg width="116" height="60" viewBox="0 0 116 60" fill="none" xmlns="http://www.w3.org/2000/svg">
<path d="M0.0803059 58.56C8.73364 46.3933 20.6436 29.7 35.8103 8.48C37.897 5.56 39.8869 3.53331 41.7803 2.39998C44.3603 0.859979 47.0869 0.0866996 49.9602 0.0800329C70.0335 0.0333663 89.5335 0.00668251 108.46 1.58445e-05C108.627 -0.000935035 108.79 0.040928 108.936 0.121598C109.082 0.202268 109.204 0.319034 109.291 0.460648C109.379 0.602263 109.428 0.76399 109.435 0.930253C109.442 1.09652 109.406 1.26169 109.33 1.40999L106.9 6.23C106.667 6.69192 106.314 7.08139 105.879 7.35634C105.444 7.63128 104.943 7.78124 104.43 7.78999C97.3769 7.94333 87.5202 7.93998 74.8602 7.77998C68.2302 7.68998 65.0702 10.99 61.1102 16.5C52.7569 28.1533 44.0435 40.1867 34.9702 52.6C32.0102 56.6533 28.1902 58.7734 23.5102 58.96C14.8436 59.3067 7.14694 59.4 0.420272 59.24C0.342097 59.2382 0.265858 59.2152 0.199813 59.1733C0.133767 59.1314 0.0803639 59.0723 0.0453938 59.0024C0.0104238 58.9325 -0.00481001 58.8543 0.00132643 58.7764C0.00746287 58.6984 0.0348233 58.6236 0.0803059 58.56Z" fill="#F7F2EC"/>
<path d="M39.6703 59.2199C39.5985 59.2169 39.5289 59.1946 39.4688 59.1554C39.4086 59.1161 39.3601 59.0614 39.3284 58.9969C39.2967 58.9325 39.2828 58.8607 39.2885 58.7891C39.2941 58.7175 39.3189 58.6487 39.3602 58.5899C47.3869 47.6833 52.4669 40.68 54.6002 37.58C57.7469 33.02 60.1269 30.3466 61.7402 29.56C66.7002 27.14 69.7203 27.18 75.9103 27.1C80.7703 27.0266 87.1736 27.1233 95.1202 27.39C95.2357 27.3944 95.3483 27.4277 95.4475 27.4869C95.5468 27.5461 95.6296 27.6293 95.6884 27.7289C95.7471 27.8284 95.7799 27.9411 95.7837 28.0566C95.7875 28.1721 95.7622 28.2868 95.7102 28.39L91.5603 36.6C91.2719 37.171 90.8314 37.6508 90.2877 37.9862C89.744 38.3217 89.1183 38.4995 88.4802 38.5C85.6202 38.5 83.9302 38.35 81.7302 40.07C81.5246 40.2358 81.3461 40.4278 81.2003 40.64C76.7403 47.1933 73.6769 51.5299 72.0103 53.6499C69.3036 57.0966 65.7502 58.9033 61.3502 59.07C53.5769 59.3633 46.3503 59.4133 39.6703 59.2199Z" fill="#F7F2EC"/>
<path d="M115.46 27.63C115.68 27.9434 115.74 28.2467 115.64 28.54C114.714 31.28 113.714 33.99 112.64 36.67C112.294 37.5167 111.944 38.0667 111.59 38.32C111.23 38.5734 110.594 38.7167 109.68 38.75C106.794 38.8634 103.907 38.8967 101.02 38.85C100.707 38.8433 100.44 38.6834 100.22 38.37C100 38.0634 99.9403 37.76 100.04 37.46C100.967 34.7267 101.97 32.02 103.05 29.34C103.39 28.4933 103.74 27.9434 104.1 27.69C104.46 27.4367 105.097 27.2934 106.01 27.26C108.89 27.1467 111.774 27.1133 114.66 27.16C114.974 27.1667 115.24 27.3234 115.46 27.63Z" fill="#B2F00E"/>
</svg>
